<svg xmlns="http://www.w3.org/2000/svg" width="1600" height="295" viewBox="0 0 1600 295" fill="none"><path d="M-7.5 294.422V54.4138C-7.38866 54.3927 -7.25438 54.3674 -7.0972 54.338C-6.5579 54.2369 -5.74891 54.0869 -4.67103 53.8911C-2.51527 53.4996 0.716034 52.9252 5.01642 52.1941C13.6172 50.7318 26.4943 48.6426 43.596 46.1353C77.7993 41.1208 128.901 34.4343 196.487 27.7476C331.658 14.3741 532.767 1 796.5 1C1060.23 1 1261.34 14.3741 1396.51 27.7476C1464.1 34.4343 1515.2 41.1208 1549.4 46.1353C1566.51 48.6426 1579.38 50.7318 1587.98 52.1941C1592.28 52.9252 1595.52 53.4996 1597.67 53.8911C1598.75 54.0869 1599.56 54.2369 1600.1 54.338C1600.25 54.3674 1600.39 54.3927 1600.5 54.4138V294.422L1599.66 294.3C1598.72 294.165 1597.32 293.964 1595.49 293.702C1591.82 293.178 1586.4 292.41 1579.39 291.433C1565.36 289.477 1544.98 286.684 1519.54 283.332C1468.66 276.629 1397.55 267.691 1316.62 258.753C1154.77 240.878 953.617 223 796.5 223C639.383 223 438.235 240.878 276.379 258.753C195.448 267.691 124.336 276.629 73.4567 283.332C48.0169 286.684 27.6352 289.477 13.6131 291.433C6.60214 292.41 1.18104 293.178 -2.48741 293.702C-4.32163 293.964 -5.7177 294.165 -6.65527 294.3C-6.9987 294.35 -7.28061 294.39 -7.5 294.422Z" fill="url(#paint0_linear_6121_47643)" stroke="url(#paint1_linear_6121_47643)"/><defs><linearGradient id="paint0_linear_6121_47643" x1="796.5" y1="80.7778" x2="796.5" y2="272.973" gradientUnits="userSpaceOnUse"><stop stop-color="#FAFAFF"/><stop offset="1" stop-color="#FAFAFF" stop-opacity="0"/></linearGradient><linearGradient id="paint1_linear_6121_47643" x1="796" y1="-152.5" x2="796" y2="152" gradientUnits="userSpaceOnUse"><stop stop-color="#CECEEA" stop-opacity="0.62"/><stop offset="1" stop-color="#CECEEA" stop-opacity="0"/></linearGradient></defs></svg>