<svg xmlns="http://www.w3.org/2000/svg" width="72" height="72" viewBox="0 0 72 72" fill="none">
<g filter="url(#filter0_d_801_84506)">
<path d="M32.3678 6.93919C35.2235 4.28575 39.7255 4.56254 42.2399 7.54614C43.8033 9.40138 46.2354 10.2886 48.6241 9.8733C52.432 9.21122 56.0304 11.8462 56.5506 15.6776L56.5736 15.8474C56.9014 18.2613 58.4684 20.3287 60.7042 21.2967C64.2753 22.843 65.8848 27.0184 64.2744 30.5584L64.2181 30.6821C63.2046 32.9099 63.4251 35.5192 64.7848 37.5566C66.9609 40.817 66.0696 45.2515 62.7824 47.3802C60.7328 48.7075 59.5205 51.0048 59.5809 53.4471L59.5854 53.6295C59.6811 57.4995 56.5634 60.682 52.6927 60.6652C50.2639 60.6547 47.9919 61.9595 46.7481 64.0448C44.7629 67.3728 40.365 68.4257 37.1295 66.2876C35.1055 64.95 32.5234 64.7912 30.353 65.8709C26.8835 67.5969 22.6453 66.013 21.0764 62.4665C20.0934 60.2443 17.9957 58.6708 15.5836 58.3837C11.7396 57.9261 9.02896 54.3854 9.59089 50.5557L9.61737 50.3753C9.97199 47.9585 9.04591 45.5297 7.17166 43.9612C4.16561 41.4455 3.81602 36.9347 6.36929 33.9651C7.96477 32.1095 8.49838 29.5465 7.76119 27.211L7.72029 27.0814C6.54891 23.3703 8.65025 19.4231 12.3815 18.3258C14.7174 17.6388 16.5223 15.7787 17.1388 13.4229L17.1822 13.2572C18.1608 9.51797 22.0504 7.34332 25.7502 8.46699C28.0711 9.17187 30.5921 8.58913 32.3678 6.93919Z" fill="#FA12E3"/>
<path d="M56.1261 15.7348L56.5506 15.6776L56.1261 15.7349L56.1491 15.9046C56.4971 18.4673 58.1607 20.6622 60.5343 21.6899C63.8853 23.1409 65.3956 27.0588 63.8844 30.3807L63.8282 30.5043L64.2181 30.6821L63.8282 30.5043C62.7528 32.8682 62.9871 35.6345 64.4286 37.7942C66.4734 40.8579 65.634 45.023 62.5493 47.0205C60.3747 48.4287 59.0886 50.8661 59.1526 53.4573L59.1572 53.6397C59.2469 57.2684 56.3235 60.2525 52.6941 60.2368C50.1113 60.2256 47.7002 61.612 46.3801 63.825C44.5171 66.9482 40.3924 67.9305 37.3655 65.9302C35.2139 64.5083 32.469 64.3395 30.1619 65.4873C26.9161 67.102 22.9405 65.6217 21.4681 62.2934C20.4249 59.9351 18.1989 58.2636 15.6339 57.9583C12.0295 57.5292 9.48785 54.2092 10.0147 50.6183L10.0412 50.4379C10.4175 47.8737 9.43492 45.2969 7.4464 43.6328C4.62557 41.2721 4.29497 37.0351 6.69422 34.2446C8.38554 32.2775 8.95188 29.5604 8.16971 27.0824L8.1288 26.9528C7.02962 23.4704 9.00145 19.7665 12.5027 18.7369C14.9826 18.0075 16.8988 16.0328 17.5533 13.5317L17.5966 13.366C18.5137 9.86185 22.1589 7.8239 25.6261 8.87693C28.093 9.62617 30.7724 9.00675 32.6596 7.2532C35.336 4.76628 39.5559 5.02572 41.9124 7.82208C43.5741 9.79381 46.1589 10.7369 48.6979 10.2954C52.2664 9.67495 55.6386 12.1443 56.1261 15.7348Z" stroke="#8A007C" stroke-width="0.856841"/>
</g>
<path d="M17.5553 40.9458L18.1677 30.833L24.9137 31.2478L24.7977 33.1636L20.0768 32.8734L19.9393 35.145L24.0854 35.3999L23.9702 37.302L19.8241 37.0471L19.5805 41.0703L17.5553 40.9458ZM31.5747 41.8077L29.663 37.9954L28.4588 37.9214L28.2359 41.6025L26.2107 41.4779L26.8231 31.3652L30.6955 31.6033C33.0628 31.7488 34.0655 33.3351 33.9636 35.0183C33.8899 36.2362 33.1995 37.4299 31.7313 37.8616L33.942 41.9533L31.5747 41.8077ZM28.7347 33.3645L28.569 36.1013L30.2247 36.2031C31.3605 36.273 31.8398 35.6157 31.882 34.9178C31.926 34.1925 31.4851 33.5336 30.5683 33.4772L28.7347 33.3645ZM35.855 42.0709L36.4674 31.9581L43.3228 32.3796L43.2085 34.2681L38.3919 33.9719L38.2601 36.1477L42.721 36.422L42.6066 38.3104L38.1458 38.0362L38.0082 40.3078L42.8249 40.6039L42.7105 42.4924L35.855 42.0709ZM44.9781 42.6318L45.5905 32.519L52.446 32.9405L52.3316 34.829L47.515 34.5328L47.3832 36.7086L51.8441 36.9829L51.7298 38.8713L47.2689 38.5971L47.1313 40.8687L51.948 41.1648L51.8336 43.0533L44.9781 42.6318Z" fill="white"/>
<defs>
<filter id="filter0_d_801_84506" x="1.2367" y="5.11578" width="68.1653" height="69.1382" filterUnits="userSpaceOnUse" color-interpolation-filters="sRGB">
<feFlood flood-opacity="0" result="BackgroundImageFix"/>
<feColorMatrix in="SourceAlpha" type="matrix" values="0 0 0 0 0 0 0 0 0 0 0 0 0 0 0 0 0 0 127 0" result="hardAlpha"/>
<feOffset dy="3.42736"/>
<feGaussianBlur stdDeviation="1.71368"/>
<feComposite in2="hardAlpha" operator="out"/>
<feColorMatrix type="matrix" values="0 0 0 0 0.342829 0 0 0 0 0.2925 0 0 0 0 0.675 0 0 0 0.15 0"/>
<feBlend mode="normal" in2="BackgroundImageFix" result="effect1_dropShadow_801_84506"/>
<feBlend mode="normal" in="SourceGraphic" in2="effect1_dropShadow_801_84506" result="shape"/>
</filter>
</defs>
</svg>